<svg xmlns="http://www.w3.org/2000/svg" width="512" height="512" viewBox="0 0 512 512" version="1.1">
	<path d="M 229.500 23.108 C 186.969 28.209, 144.586 45.984, 111 72.806 C 62.882 111.235, 31.170 169.361, 24.968 230.500 C 24.354 236.550, 23.998 244.323, 24.176 247.774 L 24.500 254.048 34 247.886 C 39.225 244.497, 91.314 211.188, 149.753 173.865 L 256.005 106.006 362.253 173.866 C 491.387 256.343, 488 254.158, 488 255 C 488 255.885, 493.834 252.138, 299.400 376.148 C 276.245 390.917, 256.721 403, 256.014 403 C 255.306 403, 235.777 390.916, 212.614 376.146 C 105.084 307.579, 42.711 267.757, 34 262.110 L 24.500 255.951 24.174 261.726 C 23.382 275.775, 28.311 305.705, 34.651 325.347 C 46.751 362.838, 66.789 395.132, 94.623 422 C 130.388 456.527, 175.677 478.716, 224.186 485.482 C 238.896 487.534, 274.168 487.517, 289.216 485.451 C 313.777 482.078, 337.675 474.678, 360.228 463.461 C 476.692 405.538, 523.213 264.623, 464.193 148.551 C 434.895 90.933, 380.234 46.399, 318.709 30.021 C 297.061 24.258, 285.614 22.768, 260.500 22.445 C 247.850 22.282, 233.900 22.581, 229.500 23.108 M 236 158.522 C 207.398 164.391, 181.664 183.963, 168.608 209.776 L 165.940 215.052 174.220 214.276 C 189.033 212.888, 222.477 213.499, 234.711 215.382 C 247.835 217.402, 262.081 220.752, 274 224.620 C 278.675 226.137, 282.725 227.445, 283 227.526 C 284.048 227.834, 287.852 229.467, 298.175 234.040 C 311.843 240.095, 330.258 250.999, 342.900 260.522 C 348.360 264.635, 353.091 268, 353.414 268 C 354.423 268, 354.053 243.666, 352.949 237.434 C 345.920 197.747, 313.253 165.080, 273.566 158.051 C 265.489 156.620, 243.951 156.890, 236 158.522 M 192 220 C 192 224.386, 192.254 225, 194.066 225 C 197.763 225, 200 223.115, 200 220 C 200 216.885, 197.763 215, 194.066 215 C 192.254 215, 192 215.614, 192 220 M 204 220 L 204 225 208 225 C 210.200 225, 212 224.550, 212 224 C 212 223.450, 210.425 223, 208.500 223 C 206.575 223, 205 222.550, 205 222 C 205 221.450, 206.098 221, 207.441 221 C 208.784 221, 210.160 220.550, 210.500 220 C 210.861 219.417, 209.844 219, 208.059 219 C 206.377 219, 205 218.550, 205 218 C 205 217.450, 206.575 217, 208.500 217 C 210.425 217, 212 216.550, 212 216 C 212 215.450, 210.200 215, 208 215 L 204 215 204 220 M 179.353 218.186 C 179.694 219.459, 179.979 221.512, 179.986 222.750 C 179.994 223.988, 180.436 225, 180.969 225 C 181.501 225, 181.678 224.325, 181.362 223.500 C 180.941 222.403, 181.487 222, 183.393 222 C 185.044 222, 186 222.550, 186 223.500 C 186 224.325, 186.366 225, 186.812 225 C 187.259 225, 187.597 223.088, 187.562 220.750 L 187.500 216.500 183.117 216.186 C 178.965 215.889, 178.766 215.994, 179.353 218.186 M 216.100 220.750 C 216.177 224.444, 216.360 224.944, 216.923 223 L 217.647 220.500 218.391 222.750 C 218.800 223.988, 219.486 225, 219.915 225 C 220.343 225, 221.216 223.988, 221.852 222.750 C 222.977 220.566, 222.995 220.564, 222.465 222.666 C 222.164 223.857, 222.387 225.121, 222.959 225.475 C 223.615 225.880, 224 224.616, 224 222.059 C 224 219.827, 224.034 217.674, 224.075 217.275 C 224.287 215.222, 221.982 216.222, 221.430 218.422 C 220.711 221.287, 219 220.949, 219 217.941 C 219 216.873, 218.325 216, 217.500 216 C 216.363 216, 216.024 217.150, 216.100 220.750 M 169.427 217.744 C 166.176 220.034, 167.562 226, 171.345 226 C 174.830 226, 176.566 223.514, 175.402 220.190 C 174.461 217.505, 171.493 216.289, 169.427 217.744 M 182.750 217.749 C 181.787 217.968, 181 218.564, 181 219.073 C 181 220.281, 184.710 220.278, 185.457 219.069 C 186.206 217.858, 184.956 217.248, 182.750 217.749 M 193 220 C 193 222.683, 193.327 223.093, 195.250 222.820 C 196.898 222.585, 197.500 221.831, 197.500 220 C 197.500 218.169, 196.898 217.415, 195.250 217.180 C 193.327 216.907, 193 217.317, 193 220 M 169.385 220.439 C 168.594 222.500, 170.722 225.044, 172.626 224.313 C 174.621 223.548, 173.945 219.605, 171.747 219.186 C 170.783 219.003, 169.720 219.566, 169.385 220.439 M 235.578 222.434 C 234.713 227.045, 235.382 228.025, 239.309 227.894 L 242.500 227.787 239.750 226.701 C 238.238 226.103, 237 225.251, 237 224.807 C 237 224.363, 238.238 223.980, 239.750 223.955 L 242.500 223.910 239.500 222.445 L 236.500 220.981 239.750 221.465 C 241.537 221.732, 243 221.511, 243 220.975 C 243 220.439, 242.438 219.994, 241.750 219.986 C 241.063 219.979, 239.545 219.716, 238.377 219.403 C 236.574 218.919, 236.152 219.376, 235.578 222.434 M 283.806 222.400 C 282.494 223.359, 282.433 223.872, 283.465 225.283 C 285.116 227.541, 287.643 227.474, 288.249 225.157 C 288.902 222.660, 285.952 220.830, 283.806 222.400 M 254.053 225.750 C 252.682 230.686, 252.774 231.881, 254.364 229.789 C 255.156 228.745, 256.803 228.160, 258.581 228.289 C 260.922 228.458, 261.561 228.056, 261.818 226.252 C 262.055 224.589, 261.452 223.742, 259.504 223.002 C 255.550 221.498, 255.182 221.684, 254.053 225.750 M 256.218 225.154 C 256.464 225.895, 257.468 226.655, 258.448 226.846 C 259.588 227.066, 260.069 226.706, 259.782 225.846 C 259.536 225.105, 258.532 224.345, 257.552 224.154 C 256.412 223.934, 255.931 224.294, 256.218 225.154 M 265.655 229.500 C 264.811 231.975, 264.496 234, 264.954 234 C 265.411 234, 266.052 233.306, 266.378 232.457 C 266.840 231.254, 267.406 231.147, 268.948 231.972 C 270.113 232.596, 270.691 233.641, 270.356 234.515 C 270.042 235.332, 270.284 236, 270.893 236 C 271.502 236, 272 235.127, 272 234.059 C 272 232.991, 272.450 231.840, 273 231.500 C 275.155 230.168, 273.968 227.184, 270.851 226.098 C 269.119 225.494, 267.586 225, 267.445 225 C 267.304 225, 266.498 227.025, 265.655 229.500 M 176.402 228.051 C 171.948 228.556, 166.548 229.330, 164.402 229.772 C 160.644 230.546, 160.457 230.777, 159.346 236.038 C 157.866 243.048, 157.689 264.879, 159.051 272.566 C 166.080 312.253, 198.747 344.920, 238.434 351.949 C 246.073 353.302, 265.927 353.302, 273.566 351.949 C 292.606 348.577, 311.530 338.615, 325.572 324.572 C 333.958 316.187, 339.723 307.914, 344.992 296.706 C 350.975 283.979, 351.233 285.326, 341.262 277.275 C 310.280 252.261, 272.962 235.643, 233.981 229.503 C 221.635 227.559, 188.199 226.716, 176.402 228.051 M 268 228.594 C 268 229.367, 268.900 230, 270 230 C 271.100 230, 272 229.602, 272 229.117 C 272 228.631, 271.100 227.998, 270 227.710 C 268.700 227.370, 268 227.680, 268 228.594 M 278.050 231.440 C 277.393 232.231, 277.001 234.144, 277.178 235.690 C 277.754 240.715, 285 239.685, 285 234.578 C 285 230.455, 280.539 228.441, 278.050 231.440 M 278.604 233.590 C 277.785 235.725, 278.703 237, 281.059 237 C 282.463 237, 283 236.308, 283 234.500 C 283 231.619, 279.628 230.921, 278.604 233.590 M 175.236 235.493 C 173.958 236.054, 173.196 237.069, 173.486 237.825 C 173.769 238.561, 174 239.689, 174 240.332 C 174 242.330, 178.620 241.646, 179.618 239.500 C 180.971 236.588, 178.303 234.148, 175.236 235.493 M 289.536 235.960 C 287.012 238.749, 288.170 242.608, 291.737 243.290 C 295.363 243.983, 297.717 240.873, 294.500 239.638 C 293.564 239.279, 293 239.646, 293 240.615 C 293 242.937, 290.549 241.680, 290.180 239.167 C 289.744 236.205, 292.845 235.067, 294.645 237.529 C 295.684 238.950, 296 239.034, 296 237.891 C 296 236.122, 294.067 234, 292.455 234 C 291.825 234, 290.512 234.882, 289.536 235.960 M 299.642 242.624 C 297.977 246.116, 298.225 248.871, 299.953 246.075 C 301.237 243.999, 304.338 245.599, 303.707 248.012 C 303.027 250.613, 304.674 250.602, 305.500 248 C 305.849 246.900, 306.554 246, 307.067 246 C 307.580 246, 308 244.947, 308 243.661 C 308 242.124, 307.126 240.923, 305.453 240.161 C 301.810 238.501, 301.558 238.608, 299.642 242.624 M 302 241.965 C 302 242.495, 302.900 243.411, 304 244 C 305.566 244.838, 306 244.760, 306 243.642 C 306 242.857, 305.288 241.941, 304.418 241.607 C 302.294 240.792, 302 240.835, 302 241.965 M 310.171 247.910 L 307.973 251.820 311.355 253.910 C 315.032 256.183, 316 256.445, 316 255.169 C 316 254.712, 314.875 253.736, 313.500 253 C 312.125 252.264, 311 251.047, 311 250.296 C 311 249.255, 311.461 249.176, 312.934 249.965 C 316.275 251.753, 317.637 251.077, 314.655 249.111 C 313.090 248.079, 312.237 246.972, 312.758 246.650 C 313.279 246.328, 314.559 246.710, 315.603 247.500 C 317.737 249.116, 319 249.382, 319 248.216 C 319 247.516, 313.812 244, 312.780 244 C 312.553 244, 311.379 245.760, 310.171 247.910 M 274.559 252.532 C 273.491 253.339, 273.154 254, 273.809 254 C 274.464 254, 275 254.675, 275 255.500 C 275 257.541, 277.988 257.398, 279.535 255.283 C 280.569 253.869, 280.500 253.346, 279.145 252.315 C 277.077 250.742, 276.916 250.749, 274.559 252.532 M 322.667 251.667 C 321.504 252.830, 321.944 255.280, 323.655 257.171 C 325.156 258.829, 325.160 259, 323.705 259 C 322.822 259, 321.661 258.216, 321.125 257.258 C 320.589 256.300, 319.902 255.765, 319.598 256.069 C 318.562 257.105, 322.108 261, 324.088 261 C 326.850 261, 327.584 258.303, 325.461 255.957 C 324.481 254.874, 324.007 253.660, 324.408 253.259 C 324.809 252.858, 325.996 253.648, 327.046 255.015 C 328.538 256.956, 328.960 257.130, 328.978 255.807 C 328.990 254.875, 328 253.413, 326.777 252.557 C 324.313 250.830, 323.647 250.686, 322.667 251.667 M 217 255.936 C 214.516 258.526, 215.614 261.667, 219.004 261.667 C 220.603 261.667, 221.668 261.272, 221.370 260.790 C 221.072 260.307, 221.324 259.314, 221.931 258.583 C 222.774 257.567, 222.499 256.913, 220.767 255.813 C 218.775 254.547, 218.318 254.562, 217 255.936 M 332.393 259.419 C 332.093 260.200, 332.609 262, 333.539 263.419 C 335.539 266.472, 333.777 266.948, 331.661 263.927 C 330.794 262.688, 329.951 262.271, 329.568 262.890 C 328.766 264.188, 332.469 268, 334.531 268 C 336.909 268, 337.436 265.139, 335.461 262.957 C 334.481 261.874, 334.013 260.654, 334.421 260.245 C 334.829 259.837, 335.739 260.290, 336.442 261.252 C 338.001 263.384, 339 263.495, 339 261.535 C 339 260.068, 336.095 258, 334.034 258 C 333.431 258, 332.692 258.639, 332.393 259.419 M 251.786 265.153 C 250.844 266.129, 250.487 267.183, 250.993 267.496 C 251.499 267.808, 251.688 268.650, 251.413 269.365 C 251.070 270.261, 251.877 270.667, 254 270.667 C 256.006 270.667, 256.923 270.243, 256.621 269.455 C 256.365 268.789, 256.536 267.851, 257 267.372 C 257.465 266.891, 256.870 265.801, 255.671 264.939 C 253.685 263.512, 253.354 263.530, 251.786 265.153 M 341.088 267.394 C 339.451 269.366, 340.058 273.018, 342.250 274.393 C 344.987 276.108, 347.500 273.953, 347.500 269.891 C 347.500 266.988, 347.128 266.457, 344.914 266.199 C 343.492 266.034, 341.770 266.572, 341.088 267.394 M 343.250 267.703 C 341.535 268.339, 341.647 273, 343.378 273 C 344.135 273, 345.334 272.302, 346.042 271.450 C 347.096 270.179, 347.073 269.660, 345.914 268.570 C 345.136 267.838, 343.938 267.448, 343.250 267.703 M 193 272.500 C 193 273.325, 193.675 274, 194.500 274 C 195.325 274, 196 273.325, 196 272.500 C 196 271.675, 195.325 271, 194.500 271 C 193.675 271, 193 271.675, 193 272.500 M 182.818 275.072 C 181.605 276.365, 181.343 277.637, 181.879 279.642 C 182.312 281.258, 182.911 281.953, 183.312 281.304 C 183.692 280.690, 184.972 280.441, 186.157 280.751 C 187.674 281.148, 188.093 280.959, 187.570 280.114 C 187.162 279.453, 187.372 278.257, 188.036 277.456 C 188.986 276.312, 188.974 276, 187.983 276 C 187.288 276, 186.221 275.388, 185.610 274.640 C 184.688 273.510, 184.216 273.583, 182.818 275.072 M 244.331 274.260 C 242.906 276.540, 243.160 278, 244.981 278 C 247.302 278, 248.133 275.848, 246.428 274.255 C 245.379 273.275, 244.946 273.276, 244.331 274.260 M 262.219 276.236 C 261.022 277.678, 261.751 279.350, 263.750 279.750 C 265.167 280.033, 265.378 278.144, 264.146 276.203 C 263.475 275.144, 263.120 275.150, 262.219 276.236 M 203.227 283.602 C 202.290 284.605, 202.368 285.226, 203.586 286.443 C 205.542 288.399, 205.665 288.389, 206.232 286.220 C 206.879 283.745, 204.792 281.927, 203.227 283.602 M 170.424 284.372 C 169.088 285.826, 169.719 288, 171.476 288 C 173.295 288, 174.135 285.354, 172.691 284.173 C 171.905 283.531, 171.134 283.599, 170.424 284.372 M 251.306 283.700 C 249.736 284.265, 250.814 287, 252.607 287 C 253.373 287, 254 286.352, 254 285.559 C 254 283.838, 252.945 283.110, 251.306 283.700 M 330.418 284.354 C 329.386 287.041, 330.335 288.207, 332.352 286.732 C 334.006 285.522, 334.030 285.270, 332.602 284.085 C 331.283 282.990, 330.924 283.034, 330.418 284.354 M 318.261 285.545 C 316.572 287.382, 317.754 290, 320.274 290 C 321.406 290, 322.037 289.704, 321.675 289.342 C 321.313 288.980, 321.519 288.080, 322.131 287.342 C 322.981 286.318, 322.880 286, 321.706 286 C 320.859 286, 320.017 285.594, 319.833 285.099 C 319.650 284.603, 318.942 284.804, 318.261 285.545 M 320.219 293.236 C 319.022 294.678, 319.751 296.350, 321.750 296.750 C 323.167 297.033, 323.378 295.144, 322.146 293.203 C 321.475 292.144, 321.120 292.150, 320.219 293.236 M 199.043 293.973 C 197.714 294.795, 198.872 298.183, 200.478 298.175 C 201.306 298.171, 202.958 295.984, 202.985 294.857 C 203.011 293.742, 200.374 293.151, 199.043 293.973 M 253.786 295.153 C 252.711 296.267, 252.457 297.164, 253.105 297.565 C 253.672 297.915, 253.924 298.757, 253.664 299.434 C 253.355 300.239, 254.214 300.667, 256.138 300.667 C 258.036 300.667, 258.920 300.235, 258.621 299.455 C 258.365 298.789, 258.536 297.851, 259 297.372 C 259.465 296.891, 258.870 295.801, 257.671 294.939 C 255.685 293.512, 255.354 293.530, 253.786 295.153 M 315.208 301.676 C 313.629 302.310, 315.496 305, 317.515 305 C 319.423 305, 320.099 302.252, 318.355 301.583 C 317.520 301.262, 316.761 301.036, 316.668 301.079 C 316.576 301.122, 315.919 301.391, 315.208 301.676 M 218 303 C 218 303.550, 217.367 304, 216.594 304 C 215.488 304, 215.415 304.480, 216.250 306.250 C 216.888 307.601, 218.210 308.500, 219.560 308.500 C 220.797 308.500, 221.588 308.143, 221.318 307.706 C 221.049 307.270, 221.372 306.257, 222.036 305.456 C 223.010 304.283, 222.930 304, 221.622 304 C 220.730 304, 220 303.550, 220 303 C 220 302.450, 219.550 302, 219 302 C 218.450 302, 218 302.450, 218 303 M 288.306 302.712 C 286.787 303.243, 287.788 306, 289.500 306 C 290.207 306, 291.031 305.362, 291.330 304.583 C 291.914 303.059, 290.253 302.031, 288.306 302.712 M 273.598 303.736 C 273.269 304.064, 273 305.144, 273 306.135 C 273 308.170, 275.518 307.698, 276.360 305.505 C 276.892 304.117, 274.652 302.681, 273.598 303.736 M 300.459 304.067 C 299.539 305.556, 300.606 306.365, 302.520 305.631 C 303.404 305.292, 303.847 304.561, 303.504 304.007 C 302.694 302.696, 301.289 302.723, 300.459 304.067 M 308.598 303.736 C 307.471 304.862, 308 306.667, 309.457 306.667 C 311.392 306.667, 312.237 304.305, 310.535 303.652 C 309.798 303.369, 308.927 303.407, 308.598 303.736 M 300.244 313.664 C 298.668 314.300, 299.626 316, 301.559 316 C 302.352 316, 303 315.325, 303 314.500 C 303 312.958, 302.427 312.784, 300.244 313.664 M 280.682 320.019 C 279.483 321.192, 279.233 322.026, 279.948 322.468 C 280.545 322.837, 280.808 323.501, 280.535 323.944 C 280.261 324.387, 281.115 324.750, 282.434 324.750 C 285.403 324.750, 286.435 321.684, 284.142 319.678 C 282.705 318.421, 282.273 318.464, 280.682 320.019 M 299.543 321.931 C 298.803 323.128, 300.684 324.313, 302.016 323.490 C 303.135 322.799, 302.400 321, 301 321 C 300.515 321, 299.859 321.419, 299.543 321.931 M 253.485 325.025 C 253.077 325.684, 253.364 326.609, 254.122 327.080 C 255.785 328.113, 256.681 326.281, 255.225 324.825 C 254.559 324.159, 253.979 324.226, 253.485 325.025" stroke="none" fill="black" fill-rule="evenodd"/>
</svg>